<?xml version="1.0" encoding="iso-8859-1"?>
<!-- Generator: Adobe Illustrator 19.0.0, SVG Export Plug-In . SVG Version: 6.00 Build 0)  -->
<svg version="1.1" id="Layer_1" xmlns="http://www.w3.org/2000/svg" xmlns:xlink="http://www.w3.org/1999/xlink" x="0px" y="0px"
	 viewBox="0 0 512 512" style="enable-background:new 0 0 512 512;" xml:space="preserve">
<g>
	<g>
		<path d="M509.013,215.39l-59.733-51.2c-1.536-1.331-3.516-2.057-5.547-2.057h-230.4V42.667c0-3.379-1.997-6.443-5.094-7.808
			c-3.098-1.357-6.707-0.785-9.19,1.51L2.782,215.569C1.007,217.182,0,219.469,0,221.867c0,2.398,1.007,4.685,2.782,6.298
			l196.267,179.2c2.492,2.287,6.127,2.859,9.19,1.51c3.098-1.365,5.094-4.42,5.094-7.808V281.6H338.21l105.523,89.293v98.44
			c0,4.719,3.814,8.533,8.533,8.533h51.2c4.719,0,8.533-3.814,8.533-8.533V221.867C512,219.375,510.908,217.011,509.013,215.39z"/>
	</g>
</g>
<g>
</g>
<g>
</g>
<g>
</g>
<g>
</g>
<g>
</g>
<g>
</g>
<g>
</g>
<g>
</g>
<g>
</g>
<g>
</g>
<g>
</g>
<g>
</g>
<g>
</g>
<g>
</g>
<g>
</g>
</svg>
